<svg xmlns="http://www.w3.org/2000/svg" width="726.91" height="329.42" viewBox="0 0 726.91 329.42" role="img" aria-label="Riley. by The 8:14 Project">
  <title>Riley. by The 8:14 Project — maker's mark with sun (light card)</title>
  <defs>
    <radialGradient id="sunL" cx="40%" cy="35%" r="65%">
      <stop offset="0%" stop-color="#E8D5A3"/><stop offset="55%" stop-color="#C9A84C"/><stop offset="100%" stop-color="#A8842F"/>
    </radialGradient>
    <filter id="glowL" x="-150%" y="-150%" width="400%" height="400%"><feGaussianBlur stdDeviation="35.250"/></filter>
  </defs>
  <rect x="0" y="0" width="726.91" height="329.42" rx="14.33" ry="14.33" fill="#ffffff"/>
  <rect x="0.5" y="0.5" width="725.91" height="328.42" rx="13.83" ry="13.83" fill="none" stroke="rgba(201,168,76,0.16)" stroke-width="1"/>
  <circle cx="160.78" cy="157.78" r="63.28" fill="rgba(201,168,76,0.55)" filter="url(#glowL)"/>
  <circle cx="160.78" cy="157.78" r="63.28" fill="url(#sunL)"/>
  <path d="M22 0V10L43 17Q63 24 69.0 35.5Q75 47 75 68V591Q75 611 69.5 622.5Q64 634 45 641L22 650V660H308Q426 660 489.0 615.5Q552 571 552 492Q552 448 519.0 404.0Q486 360 415 336L554 60Q563 43 574.5 32.5Q586 22 605 14L618 9V0H439L291 315H223V68Q223 49 229.0 37.0Q235 25 254 19L278 10V0ZM223 335H271Q343 335 375.0 373.5Q407 412 407 488Q407 565 377.0 602.5Q347 640 276 640H223Z" transform="translate(272.325,207.281) scale(0.15000,-0.15000)" fill="#0A0908"/>
  <path d="M140 548Q106 548 82.5 569.5Q59 591 59 624Q59 658 82.5 679.0Q106 700 140 700Q174 700 197.0 679.0Q220 658 220 624Q220 591 197.0 569.5Q174 548 140 548ZM22 0V10L36 14Q56 20 63.5 32.0Q71 44 71 64V377Q71 398 63.5 408.5Q56 419 36 423L22 426V436L205 495L215 485L212 343V63Q212 43 219.5 31.0Q227 19 246 13L256 10V0Z" transform="translate(366.525,207.281) scale(0.15000,-0.15000)" fill="#0A0908"/>
  <path d="M23 0V10L35 14Q71 26 71 64V599Q71 619 63.0 629.5Q55 640 35 645L22 648V658L205 701L217 692L213 552V210Q213 173 213.5 136.5Q214 100 214 64Q214 44 222.0 31.5Q230 19 249 13L262 10V0Z" transform="translate(408.525,207.281) scale(0.15000,-0.15000)" fill="#0A0908"/>
  <path d="M271 496Q336 496 382.0 469.5Q428 443 452.5 397.5Q477 352 477 294Q477 283 476.0 271.5Q475 260 472 251H174Q175 143 212.5 95.5Q250 48 324 48Q374 48 405.0 64.0Q436 80 463 111L473 102Q442 47 390.5 16.0Q339 -15 267 -15Q196 -15 141.0 15.5Q86 46 55.0 103.0Q24 160 24 239Q24 321 60.0 378.5Q96 436 152.5 466.0Q209 496 271 496ZM268 476Q239 476 218.5 458.5Q198 441 186.5 396.5Q175 352 174 271H345Q355 380 337.0 428.0Q319 476 268 476Z" transform="translate(451.425,207.281) scale(0.15000,-0.15000)" fill="#0A0908"/>
  <path d="M112 -240Q72 -240 48.5 -220.0Q25 -200 25 -169Q25 -141 45.0 -124.0Q65 -107 90 -107Q115 -107 132.0 -117.5Q149 -128 162 -148L169 -156Q191 -186 213 -155Q222 -140 233.5 -115.5Q245 -91 260 -50L66 414Q59 433 51.0 444.5Q43 456 25 464L7 471V481H256V472L236 464Q214 457 213.5 441.5Q213 426 221 403L325 133L424 406Q432 429 430.0 444.5Q428 460 405 466L384 471V481H523V471L501 464Q478 457 469.0 444.0Q460 431 452 408L291 -31Q252 -136 213.0 -188.0Q174 -240 112 -240Z" transform="translate(527.475,207.281) scale(0.15000,-0.15000)" fill="#0A0908"/>
  <path d="M150 -15Q114 -15 89.0 10.0Q64 35 64 70Q64 105 89.0 131.0Q114 157 150 157Q186 157 211.0 131.0Q236 105 236 70Q236 35 211.0 10.0Q186 -15 150 -15Z" transform="translate(607.875,207.281) scale(0.15000,-0.15000)" fill="#A8842F"/>
  <path d="M66 0V700H299Q408 700 463.0 650.0Q518 600 518 522Q518 461 485.0 421.5Q452 382 411 366V359Q460 343 497.0 301.0Q534 259 534 193Q534 139 507.5 95.5Q481 52 430.5 26.0Q380 0 307 0ZM150 398H293Q360 398 395.5 427.5Q431 457 431 513Q431 566 396.0 595.0Q361 624 290 624H150ZM150 77H298Q370 77 409.0 109.5Q448 142 448 201Q448 260 407.0 292.5Q366 325 296 325H150Z" transform="translate(275.625,305.421) scale(0.02829,-0.02829)" fill="#6B655B"/>
  <path d="M258 0V275L31 700H126L300 360L474 700H569L342 275V0Z" transform="translate(298.254,305.421) scale(0.02829,-0.02829)" fill="#6B655B"/>
  <path d="M258 0V624H70V700H530V624H342V0Z" transform="translate(343.511,305.421) scale(0.02829,-0.02829)" fill="#6B655B"/>
  <path d="M47 0V700H131V398H470V700H554V0H470V322H131V0Z" transform="translate(366.139,305.421) scale(0.02829,-0.02829)" fill="#6B655B"/>
  <path d="M86 0V700H523V624H170V391H493V315H170V76H523V0Z" transform="translate(388.768,305.421) scale(0.02829,-0.02829)" fill="#6B655B"/>
  <path d="M300 -12Q230 -12 177.5 14.5Q125 41 95.0 87.0Q65 133 65 192Q65 258 100.0 304.0Q135 350 181 368V373Q137 394 110.5 433.5Q84 473 84 526Q84 577 110.5 619.5Q137 662 186.0 687.0Q235 712 300 712Q364 712 412.5 687.0Q461 662 488.5 619.5Q516 577 516 526Q516 473 489.5 433.5Q463 394 419 373V368Q465 350 500.0 304.0Q535 258 535 192Q535 133 505.0 87.0Q475 41 422.5 14.5Q370 -12 300 -12ZM300 404Q362 404 397.5 436.5Q433 469 433 521Q433 572 397.5 604.5Q362 637 300 637Q238 637 202.5 604.5Q167 572 167 521Q167 469 202.5 436.5Q238 404 300 404ZM300 64Q367 64 408.5 98.5Q450 133 450 199Q450 264 408.5 298.5Q367 333 300 333Q233 333 191.5 298.5Q150 264 150 199Q150 133 191.5 98.5Q233 64 300 64Z" transform="translate(434.025,305.421) scale(0.02829,-0.02829)" fill="#6B655B"/>
  <path d="M300 -2Q269 -2 247.0 19.0Q225 40 225 71Q225 101 247.0 122.0Q269 143 300 143Q331 143 353.0 122.0Q375 101 375 71Q375 40 353.0 19.0Q331 -2 300 -2ZM300 393Q269 393 247.0 414.0Q225 435 225 466Q225 496 247.0 517.0Q269 538 300 538Q331 538 353.0 517.0Q375 496 375 466Q375 435 353.0 414.0Q331 393 300 393Z" transform="translate(456.654,305.421) scale(0.02829,-0.02829)" fill="#6B655B"/>
  <path d="M70 0V76H251V601L80 568V632L279 700H335V76H526V0Z" transform="translate(479.282,305.421) scale(0.02829,-0.02829)" fill="#6B655B"/>
  <path d="M386 0V162H51V227L370 700H470V238H570V162H470V0ZM145 238H390V602Z" transform="translate(501.911,305.421) scale(0.02829,-0.02829)" fill="#6B655B"/>
  <path d="M74 0V700H307Q387 700 438.0 671.0Q489 642 513.0 594.0Q537 546 537 488Q537 430 513.0 382.0Q489 334 438.0 305.0Q387 276 307 276H158V0ZM158 353H305Q379 353 415.0 390.5Q451 428 451 488Q451 548 415.0 586.0Q379 624 305 624H158Z" transform="translate(547.168,305.421) scale(0.02829,-0.02829)" fill="#6B655B"/>
  <path d="M82 0V700H297Q378 700 430.5 673.0Q483 646 509.0 599.5Q535 553 535 494Q535 425 499.5 372.5Q464 320 391 299L543 0H443L302 287H297H166V0ZM166 364H294Q374 364 411.5 400.5Q449 437 449 494Q449 554 412.5 589.0Q376 624 293 624H166Z" transform="translate(569.796,305.421) scale(0.02829,-0.02829)" fill="#6B655B"/>
  <path d="M300 -12Q215 -12 154.0 33.0Q93 78 60.5 159.5Q28 241 28 350Q28 459 60.5 540.5Q93 622 154.0 667.0Q215 712 300 712Q385 712 446.0 667.0Q507 622 539.5 540.5Q572 459 572 350Q572 241 539.5 159.5Q507 78 446.0 33.0Q385 -12 300 -12ZM300 67Q383 67 434.5 141.0Q486 215 486 350Q486 485 434.5 559.0Q383 633 300 633Q216 633 165.0 559.0Q114 485 114 350Q114 215 165.0 141.0Q216 67 300 67Z" transform="translate(592.425,305.421) scale(0.02829,-0.02829)" fill="#6B655B"/>
  <path d="M308 -12Q205 -12 150.0 46.5Q95 105 95 208H180Q181 149 211.0 107.5Q241 66 307 66Q373 66 401.5 106.0Q430 146 430 206V700H514V206Q514 101 460.0 44.5Q406 -12 308 -12Z" transform="translate(615.054,305.421) scale(0.02829,-0.02829)" fill="#6B655B"/>
  <path d="M86 0V700H523V624H170V391H493V315H170V76H523V0Z" transform="translate(637.682,305.421) scale(0.02829,-0.02829)" fill="#6B655B"/>
  <path d="M305 -12Q220 -12 158.5 33.0Q97 78 64.5 159.0Q32 240 32 350Q32 459 64.5 540.5Q97 622 158.5 667.0Q220 712 305 712Q413 712 479.0 652.5Q545 593 556 494H463Q453 553 413.0 593.0Q373 633 305 633Q218 633 168.0 557.5Q118 482 118 350Q118 217 168.0 142.0Q218 67 305 67Q376 67 414.5 105.0Q453 143 463 203H556Q540 103 476.5 45.5Q413 -12 305 -12Z" transform="translate(660.311,305.421) scale(0.02829,-0.02829)" fill="#6B655B"/>
  <path d="M258 0V624H70V700H530V624H342V0Z" transform="translate(682.939,305.421) scale(0.02829,-0.02829)" fill="#6B655B"/>
</svg>
