<svg xmlns="http://www.w3.org/2000/svg" width="600.00" height="297.95" viewBox="0 0 600.00 297.95" role="img" aria-label="Riley. by The 8:14 Project">
  <title>Riley. — Nav Ink Chip</title>
  <defs>
    <radialGradient id="sunD" cx="40%" cy="35%" r="65%">
      <stop offset="0%" stop-color="#E8D5A3"/><stop offset="55%" stop-color="#C9A84C"/><stop offset="100%" stop-color="#A8842F"/>
    </radialGradient>
    <filter id="glowD" x="-120%" y="-120%" width="340%" height="340%"><feGaussianBlur stdDeviation="26.053"/></filter>
  </defs>
  <rect x="0" y="0" width="600.00" height="297.95" rx="24.25" ry="24.25" fill="#0A0908"/>
  <circle cx="140.31" cy="148.97" r="46.77" fill="rgba(201,168,76,0.55)" filter="url(#glowD)"/>
  <circle cx="140.31" cy="148.97" r="46.77" fill="url(#sunD)"/>
  <path d="M22 0V10L43 17Q63 24 69.0 35.5Q75 47 75 68V591Q75 611 69.5 622.5Q64 634 45 641L22 650V660H308Q426 660 489.0 615.5Q552 571 552 492Q552 448 519.0 404.0Q486 360 415 336L554 60Q563 43 574.5 32.5Q586 22 605 14L618 9V0H439L291 315H223V68Q223 49 229.0 37.0Q235 25 254 19L278 10V0ZM223 335H271Q343 335 375.0 373.5Q407 412 407 488Q407 565 377.0 602.5Q347 640 276 640H223Z" transform="translate(225.194,185.560) scale(0.11086,-0.11086)" fill="#FFFFFF"/>
  <path d="M140 548Q106 548 82.5 569.5Q59 591 59 624Q59 658 82.5 679.0Q106 700 140 700Q174 700 197.0 679.0Q220 658 220 624Q220 591 197.0 569.5Q174 548 140 548ZM22 0V10L36 14Q56 20 63.5 32.0Q71 44 71 64V377Q71 398 63.5 408.5Q56 419 36 423L22 426V436L205 495L215 485L212 343V63Q212 43 219.5 31.0Q227 19 246 13L256 10V0Z" transform="translate(294.817,185.560) scale(0.11086,-0.11086)" fill="#FFFFFF"/>
  <path d="M23 0V10L35 14Q71 26 71 64V599Q71 619 63.0 629.5Q55 640 35 645L22 648V658L205 701L217 692L213 552V210Q213 173 213.5 136.5Q214 100 214 64Q214 44 222.0 31.5Q230 19 249 13L262 10V0Z" transform="translate(325.859,185.560) scale(0.11086,-0.11086)" fill="#FFFFFF"/>
  <path d="M271 496Q336 496 382.0 469.5Q428 443 452.5 397.5Q477 352 477 294Q477 283 476.0 271.5Q475 260 472 251H174Q175 143 212.5 95.5Q250 48 324 48Q374 48 405.0 64.0Q436 80 463 111L473 102Q442 47 390.5 16.0Q339 -15 267 -15Q196 -15 141.0 15.5Q86 46 55.0 103.0Q24 160 24 239Q24 321 60.0 378.5Q96 436 152.5 466.0Q209 496 271 496ZM268 476Q239 476 218.5 458.5Q198 441 186.5 396.5Q175 352 174 271H345Q355 380 337.0 428.0Q319 476 268 476Z" transform="translate(357.567,185.560) scale(0.11086,-0.11086)" fill="#FFFFFF"/>
  <path d="M112 -240Q72 -240 48.5 -220.0Q25 -200 25 -169Q25 -141 45.0 -124.0Q65 -107 90 -107Q115 -107 132.0 -117.5Q149 -128 162 -148L169 -156Q191 -186 213 -155Q222 -140 233.5 -115.5Q245 -91 260 -50L66 414Q59 433 51.0 444.5Q43 456 25 464L7 471V481H256V472L236 464Q214 457 213.5 441.5Q213 426 221 403L325 133L424 406Q432 429 430.0 444.5Q428 460 405 466L384 471V481H523V471L501 464Q478 457 469.0 444.0Q460 431 452 408L291 -31Q252 -136 213.0 -188.0Q174 -240 112 -240Z" transform="translate(413.775,185.560) scale(0.11086,-0.11086)" fill="#FFFFFF"/>
  <path d="M150 -15Q114 -15 89.0 10.0Q64 35 64 70Q64 105 89.0 131.0Q114 157 150 157Q186 157 211.0 131.0Q236 105 236 70Q236 35 211.0 10.0Q186 -15 150 -15Z" transform="translate(473.198,185.560) scale(0.11086,-0.11086)" fill="#C9A84C"/>
</svg>
