<svg xmlns="http://www.w3.org/2000/svg" width="568" height="258" viewBox="0 0 568 258">
  <defs>
    <radialGradient id="glow" cx="50%" cy="50%" r="50%">
      <stop offset="0%" stop-color="#C9A84C" stop-opacity="0.5"/>
      <stop offset="55%" stop-color="#C9A84C" stop-opacity="0.13"/>
      <stop offset="100%" stop-color="#C9A84C" stop-opacity="0"/>
    </radialGradient>
    <radialGradient id="sphere" cx="42%" cy="40%" r="62%">
      <stop offset="0%" stop-color="#EEE1B4"/>
      <stop offset="45%" stop-color="#C9A84C"/>
      <stop offset="100%" stop-color="#A8842F"/>
    </radialGradient>
  </defs>
  <circle cx="128" cy="128" r="94" fill="url(#glow)"/>
  <circle cx="128" cy="128" r="63" fill="url(#sphere)"/>
  <path d="M231.772 164.0V162.74L234.418 161.858Q236.938 160.976 237.694 159.527Q238.45 158.078 238.45 155.432V89.534Q238.45 87.014 237.757 85.565Q237.064 84.116 234.67 83.234L231.772 82.1V80.84H267.808Q282.676 80.84 290.61400000000003 86.447Q298.552 92.054 298.552 102.00800000000001Q298.552 107.55199999999999 294.394 113.096Q290.236 118.64 281.29 121.664L298.804 156.44Q299.938 158.582 301.387 159.905Q302.836 161.228 305.23 162.236L306.868 162.866V164.0H284.314L265.666 124.31H257.098V155.432Q257.098 157.826 257.85400000000004 159.338Q258.61 160.85 261.004 161.606L264.028 162.74V164.0ZM257.098 121.78999999999999H263.146Q272.218 121.78999999999999 276.25 116.939Q280.282 112.088 280.282 102.512Q280.282 92.81 276.50199999999995 88.08500000000001Q272.722 83.36 263.776 83.36H257.098Z M325.768 94.952Q321.484 94.952 318.523 92.243Q315.562 89.534 315.562 85.376Q315.562 81.092 318.523 78.446Q321.484 75.8 325.768 75.8Q330.05199999999996 75.8 332.94999999999993 78.446Q335.84799999999996 81.092 335.84799999999996 85.376Q335.84799999999996 89.534 332.94999999999993 92.243Q330.05199999999996 94.952 325.768 94.952ZM310.9 164.0V162.74L312.664 162.236Q315.18399999999997 161.48 316.129 159.968Q317.074 158.456 317.074 155.936V116.49799999999999Q317.074 113.852 316.129 112.529Q315.18399999999997 111.206 312.664 110.702L310.9 110.324V109.064L333.95799999999997 101.63L335.21799999999996 102.89L334.84 120.782V156.062Q334.84 158.582 335.78499999999997 160.094Q336.72999999999996 161.606 339.12399999999997 162.362L340.384 162.74V164.0Z M346.30600000000004 164.0V162.74L347.81800000000004 162.236Q352.35400000000004 160.724 352.35400000000004 155.936V88.526Q352.35400000000004 86.006 351.346 84.68299999999999Q350.338 83.36 347.81800000000004 82.73L346.18 82.352V81.092L369.238 75.67399999999999L370.75 76.80799999999999L370.24600000000004 94.448V137.54Q370.24600000000004 142.202 370.309 146.801Q370.372 151.4 370.372 155.936Q370.372 158.456 371.38 160.031Q372.38800000000003 161.606 374.78200000000004 162.362L376.42 162.74V164.0Z M413.59000000000003 101.50399999999999Q421.78000000000003 101.50399999999999 427.576 104.84299999999999Q433.372 108.182 436.45900000000006 113.91499999999999Q439.54600000000005 119.648 439.54600000000005 126.956Q439.54600000000005 128.34199999999998 439.4200000000001 129.791Q439.29400000000004 131.24 438.916 132.374H401.368Q401.494 145.982 406.21900000000005 151.96699999999998Q410.944 157.952 420.26800000000003 157.952Q426.56800000000004 157.952 430.47400000000005 155.93599999999998Q434.38 153.92 437.78200000000004 150.014L439.04200000000003 151.148Q435.136 158.078 428.64700000000005 161.98399999999998Q422.158 165.89 413.086 165.89Q404.14000000000004 165.89 397.21000000000004 162.047Q390.28000000000003 158.204 386.374 151.022Q382.468 143.84 382.468 133.886Q382.468 123.554 387.004 116.309Q391.54 109.064 398.659 105.28399999999999Q405.778 101.50399999999999 413.59000000000003 101.50399999999999ZM413.212 104.024Q409.558 104.024 406.975 106.229Q404.392 108.434 402.943 114.041Q401.494 119.648 401.368 129.85399999999998H422.914Q424.17400000000004 116.12 421.90600000000006 110.072Q419.63800000000003 104.024 413.212 104.024Z M457.43800000000005 194.24Q452.398 194.24 449.437 191.72Q446.476 189.2 446.476 185.294Q446.476 181.766 448.996 179.624Q451.516 177.482 454.666 177.482Q457.81600000000003 177.482 459.958 178.805Q462.1 180.128 463.738 182.648L464.62 183.656Q467.392 187.436 470.16400000000004 183.53Q471.298 181.64 472.747 178.553Q474.196 175.466 476.086 170.3L451.642 111.836Q450.76000000000005 109.44200000000001 449.75200000000007 107.993Q448.744 106.544 446.476 105.536L444.208 104.654V103.394H475.582V104.52799999999999L473.062 105.536Q470.29 106.418 470.22700000000003 108.37100000000001Q470.16400000000004 110.324 471.172 113.22200000000001L484.276 147.242L496.75 112.844Q497.75800000000004 109.946 497.50600000000003 107.993Q497.254 106.03999999999999 494.356 105.28399999999999L491.71000000000004 104.654V103.394H509.22400000000005V104.654L506.452 105.536Q503.55400000000003 106.418 502.42 108.05600000000001Q501.286 109.694 500.278 112.592L479.992 167.906Q475.07800000000003 181.136 470.164 187.688Q465.25 194.24 457.43800000000005 194.24Z" fill="#0A0908"/>
  <circle cx="531" cy="154" r="11" fill="#A8842F"/>
</svg>
